<?xml version="1.0" encoding="utf-8"?>
<!-- Generator: Adobe Illustrator 16.2.1, SVG Export Plug-In . SVG Version: 6.00 Build 0)  -->
<!DOCTYPE svg PUBLIC "-//W3C//DTD SVG 1.1//EN" "http://www.w3.org/Graphics/SVG/1.1/DTD/svg11.dtd">
<svg version="1.1" id="Layer_1" xmlns="http://www.w3.org/2000/svg" xmlns:xlink="http://www.w3.org/1999/xlink" x="0px" y="0px"
	 width="120px" height="80px" viewBox="-37.5 -25 120 80" enable-background="new -37.5 -25 120 80" xml:space="preserve">
<path fill="#B5BEC5" d="M76.5-25c-6,0-108,0-108,0c-6,0-6,5.928-6,5.928s0,62.223,0,68.145c0,5.927,6,5.927,6,5.927s102,0,108,0
	s6-5.927,6-5.927v-68.145C82.5-19.072,82.5-25,76.5-25z M60.188-11.583v-1.403c0-1.125,0.927-2.031,2.065-2.031
	c1.133,0,2.06,0.911,2.06,2.031v1.427c2.688,0.504,4.156,1.835,4.344,2.019c0.802,0.798,0.802,2.086,0,2.877
	c-0.8,0.787-2.083,0.797-2.891,0.023c-0.089-0.074-1.245-1.055-3.513-1.055c-3.729,0-4.542,2.279-4.542,2.845
	c0,1.392,0,3.293,5.036,4.535c8.159,2.01,8.159,6.72,8.159,8.491c0,2.512-2.067,5.931-6.594,6.738v1.401
	c0,1.122-0.927,2.031-2.058,2.031c-1.141,0-2.064-0.909-2.064-2.031v-1.399c-4.578-0.792-6.289-4.052-6.375-4.204
	c-0.511-1.008-0.094-2.227,0.927-2.73c1.013-0.501,2.253-0.091,2.761,0.911c0.033,0.051,1.229,2.128,4.752,2.128
	c3.725,0,4.521-2.28,4.521-2.845c0-1.389,0-3.295-5.021-4.538c-8.156-2.012-8.156-6.715-8.156-8.488
	C53.599-7.359,55.661-10.779,60.188-11.583z M22.5-16.112c9.942,0,18,7.959,18,17.778c0,4.683-1.849,8.937-4.849,12.112
	c-0.831-1.413-2.256-3.333-4.586-4.992c1.786-2.379,2.682-5.754,2.682-10.085c0-6.126-5.044-11.109-11.247-11.109
	S11.252-7.424,11.252-1.298c0,3.319,0.533,6.093,1.599,8.285c-2.375,1.253-4.051,3.031-5.234,4.672C5.652,8.811,4.5,5.371,4.5,1.667
	C4.5-8.152,12.556-16.112,22.5-16.112z M17.889,6.555c-1.422-1.568-2.139-4.208-2.139-7.85c0-3.676,3.03-6.664,6.748-6.664
	c3.721,0,6.752,2.988,6.752,6.664c0,4.397-1.047,7.313-3.104,8.667c-0.669,0.445-1.052,1.209-0.994,2.01
	c0.057,0.797,0.549,1.504,1.281,1.845c3.562,1.662,5.156,4.323,5.697,5.438c-2.786,1.753-6.086,2.778-9.63,2.778
	c-4.512,0-8.626-1.656-11.792-4.366c1.077-1.741,3.016-4.048,6.117-4.903c0.743-0.211,1.333-0.784,1.552-1.515
	C18.596,7.92,18.412,7.123,17.889,6.555z M-18.905-11.583v-1.403c0-1.125,0.924-2.031,2.059-2.031c1.135,0,2.061,0.911,2.061,2.031
	v1.427c2.69,0.504,4.158,1.835,4.344,2.019c0.799,0.798,0.799,2.086,0,2.877c-0.797,0.787-2.08,0.797-2.888,0.023
	c-0.087-0.072-1.245-1.052-3.517-1.052c-3.723,0-4.537,2.28-4.537,2.845c0,1.392,0,3.293,5.035,4.535
	C-8.19,1.699-8.19,6.408-8.19,8.178c0,2.512-2.068,5.931-6.595,6.738v1.401c0,1.123-0.926,2.031-2.061,2.031
	c-1.134,0-2.059-0.908-2.059-2.031V14.92c-4.585-0.793-6.294-4.053-6.376-4.206c-0.512-1.008-0.094-2.227,0.926-2.73
	c1.01-0.501,2.25-0.091,2.762,0.912c0.027,0.051,1.227,2.127,4.75,2.127c3.725,0,4.527-2.28,4.527-2.845
	c0-1.389,0-3.295-5.023-4.538c-8.16-2.014-8.16-6.712-8.16-8.486C-25.5-7.359-23.441-10.779-18.905-11.583z M76.5,46.114
	c0,0,0,2.959-3,2.959s-102,0-102,0s-3,0-3-2.959c0-2.963,0-2.963,0-2.963h108V46.114z M76.5,31.297c0,0,0,2.964-3,2.964
	s-102,0-102,0s-3,0-3-2.964s0-2.964,0-2.964h108V31.297z"/>
</svg>
