<?xml version="1.0" encoding="utf-8"?>
<!-- Generator: Adobe Illustrator 16.2.1, SVG Export Plug-In . SVG Version: 6.00 Build 0)  -->
<!DOCTYPE svg PUBLIC "-//W3C//DTD SVG 1.1//EN" "http://www.w3.org/Graphics/SVG/1.1/DTD/svg11.dtd">
<svg version="1.1" id="Layer_1" xmlns="http://www.w3.org/2000/svg" xmlns:xlink="http://www.w3.org/1999/xlink" x="0px" y="0px"
	 width="90px" height="80px" viewBox="-22.5 -20 90 80" enable-background="new -22.5 -20 90 80" xml:space="preserve">
<path fill="#B5BEC5" d="M66.608-7.41L64.602,7.151c-0.276,2.007-1.995,3.465-3.971,3.465c-0.164,0-0.333-0.011-0.502-0.032
	L48.587,9.141v46.846c0,2.214-1.799,4.013-4.014,4.013H0.427c-2.216,0-4.014-1.799-4.014-4.013V9.141l-11.542,1.443
	c-0.168,0.021-0.337,0.032-0.501,0.032c-1.977,0-3.694-1.458-3.971-3.465L-21.609-7.41c-0.245-1.771,0.712-3.489,2.346-4.215
	l18.06-8.027c0.008-0.005,0.016-0.005,0.025-0.009c0.278-0.123,0.571-0.209,0.879-0.267c0.086-0.016,0.172-0.016,0.258-0.026
	C0.116-19.971,0.266-20,0.427-20h9.767c1.421,0,2.735,0.75,3.455,1.972c1.876,3.177,5.183,5.074,8.852,5.074
	c3.669,0,6.977-1.897,8.85-5.074C32.071-19.249,33.388-20,34.807-20h9.767c0.159,0,0.31,0.03,0.463,0.046
	c0.09,0.011,0.177,0.011,0.267,0.028c0.306,0.054,0.6,0.142,0.878,0.265c0.008,0.004,0.016,0.004,0.023,0.009l18.061,8.027
	C65.898-10.899,66.854-9.182,66.608-7.41z M31.887,4.044c-0.882-0.51-2.293,0.306-3.151,1.816l-1.552,2.733
	c-0.566,1.137-0.492,2.491,0.229,3.536l0.045,0.063c0.717,1.045,1.682,2.013,2.003,2.358c0.188,0.202,0.329,0.453,0.407,0.738
	c0.263,0.95-0.286,1.936-1.223,2.202c-0.937,0.265-1.908-0.289-2.171-1.238c-0.065-0.236-0.079-0.477-0.048-0.71
	c0.048-0.389-0.076-1.031-0.631-1.657c-0.553-0.628-1.69,0.558-2.056,1.773l-0.018,0.057c-0.366,1.218-0.599,2.283-0.528,2.384
	c0.041,0.058,0.08,0.124,0.116,0.19c0.515,0.979,0.146,2.2-0.822,2.719c-0.97,0.52-2.171,0.151-2.688-0.831
	c-0.516-0.979-0.146-2.201,0.823-2.721c0.044-0.021,0.086-0.046,0.132-0.065c0.075-0.033,0.285-0.544,0.465-1.146
	c0.184-0.607,0.332-1.096,0.332-1.096c0.019-0.064,0.036-0.128,0.051-0.191l0.981-3.547l-1.049,2.181
	c-0.125-0.416-0.332-0.43-0.781-0.105c-0.271,0.197-0.718,0.584-0.938,0.747c-0.412,0.297-0.754,0.877-0.938,1.231
	c-0.107,0.208-0.256,0.398-0.449,0.555c-0.75,0.619-1.854,0.502-2.462-0.258c-0.611-0.762-0.496-1.878,0.254-2.495
	c0.221-0.181,0.472-0.297,0.73-0.356c0.442-0.098,1.943-1.025,2.846-1.679c0.163-0.119,0.297-0.229,0.41-0.333l2.412-1.855
	l-2.101,1.149c0,0-0.213-0.022-0.477,0.009c-0.768,0.086-1.561,0.196-1.709,0.389c-0.088,0.115-0.194,0.215-0.316,0.305
	c-0.701,0.514-1.68,0.352-2.184-0.36c-0.506-0.71-0.347-1.702,0.354-2.213c0.291-0.211,0.626-0.308,0.959-0.297
	c0.561,0.018,2.043,0.32,3.28,0.098l0.317-0.056c1.241-0.221,2.723-1.313,3.31-2.439c0,0,0.58-1.029,1.294-2.299
	c0.713-1.27,0.662-2.66-0.118-3.106l-1.406-0.807c-0.711-0.408-1.877-0.408-2.589-0.002l-9.711,5.542
	c-0.712,0.408-1.294,1.417-1.294,2.244v10.834c0,0.827,0.582,1.838,1.294,2.242l9.709,5.545c0.712,0.407,1.875,0.407,2.589,0
	l9.679-5.543c0.709-0.407,1.289-1.42,1.289-2.248V7.199c0-0.827-0.58-1.836-1.289-2.246C33.49,4.958,32.771,4.548,31.887,4.044z"/>
</svg>
