<?xml version="1.0" encoding="utf-8"?>
<!-- Generator: Adobe Illustrator 17.0.0, SVG Export Plug-In . SVG Version: 6.00 Build 0)  -->
<!DOCTYPE svg PUBLIC "-//W3C//DTD SVG 1.1//EN" "http://www.w3.org/Graphics/SVG/1.1/DTD/svg11.dtd">
<svg version="1.1" id="Layer_1" xmlns="http://www.w3.org/2000/svg" xmlns:xlink="http://www.w3.org/1999/xlink" x="0px" y="0px"
	 width="50px" height="40px" viewBox="0 0 50 40" enable-background="new 0 0 50 40" xml:space="preserve">
<g>
	<path fill="#6BC17E" d="M50,10.963C50,4.908,44.951,0,38.728,0c-5.873,0-10.694,4.368-11.223,9.945
		c-0.874-0.085-1.764-0.126-2.672-0.126c-0.791,0-1.571,0.032-2.339,0.097C21.949,4.354,17.136,0,11.272,0C5.048,0,0,4.911,0,10.963
		c0,3.932,2.129,7.376,5.325,9.311c-0.642,1.461-0.986,3.015-0.986,4.633C4.339,33.242,13.514,40,24.835,40
		s20.499-6.758,20.499-15.093c0-1.56-0.321-3.063-0.918-4.486C47.754,18.528,50,15.003,50,10.963z"/>
	<ellipse fill="#FBDF3E" cx="11.371" cy="10.942" rx="8.504" ry="8.437"/>
	<ellipse fill="#44A057" cx="22.321" cy="18.877" rx="1.105" ry="1.092"/>
	<ellipse fill="#44A057" cx="27.548" cy="18.877" rx="1.105" ry="1.092"/>
	<ellipse fill="#FBDF3E" cx="38.828" cy="10.942" rx="8.505" ry="8.437"/>
	<path fill="#51B66B" d="M25.265,22.731c-12.847,0-19.343,4.476-19.343,4.476s6.403,8.985,19.343,8.985
		c11.419,0,18.813-8.985,18.813-8.985S36.589,22.731,25.265,22.731z"/>
	<path fill="#EBBBCF" d="M25.265,23.565c-12.847,0-19.343,3.92-19.343,3.92s6.403,7.871,19.343,7.871
		c11.419,0,18.813-7.871,18.813-7.871S36.589,23.565,25.265,23.565z"/>
	<g>
		<g id="Shape_5_copy_25_6_">
			<g>
				<ellipse fill="#231F20" cx="11.371" cy="10.943" rx="2.807" ry="2.783"/>
			</g>
		</g>
		<g id="Shape_5_copy_25_5_">
			<g>
				<ellipse fill="#231F20" cx="38.825" cy="10.943" rx="2.804" ry="2.783"/>
			</g>
		</g>
	</g>
	<path fill="#F5DBE5" d="M28.888,30.721c0,1.903-1.56,3.447-3.486,3.447h-0.803c-1.926,0-3.487-1.544-3.487-3.447v-3.484h7.775
		V30.721z"/>
	<g id="Shape_12_copy_3_">
		<g>
			<path fill="#E3A1BF" d="M25.265,23.565c-12.847,0-19.343,3.92-19.343,3.92h38.156C44.078,27.485,36.589,23.565,25.265,23.565z"/>
		</g>
	</g>
</g>
</svg>
