<?xml version="1.0" encoding="utf-8"?>
<!-- Generator: Adobe Illustrator 16.2.1, SVG Export Plug-In . SVG Version: 6.00 Build 0)  -->
<!DOCTYPE svg PUBLIC "-//W3C//DTD SVG 1.1//EN" "http://www.w3.org/Graphics/SVG/1.1/DTD/svg11.dtd">
<svg version="1.1" id="Layer_1" xmlns="http://www.w3.org/2000/svg" xmlns:xlink="http://www.w3.org/1999/xlink" x="0px" y="0px"
	 width="240px" height="240px" viewBox="0 0 240 240" enable-background="new 0 0 240 240" xml:space="preserve">
<path fill="#C0C8CE" d="M217.093,49.464L184.699,73.03c9.607,13.2,15.346,29.395,15.346,46.969
	c0,26.586-13.039,50.085-33.012,64.632l23.553,32.445C244.139,178.124,256.012,103.077,217.093,49.464z"/>
<path opacity="0.7" fill="#C0C8CE" enable-background="new    " d="M184.676,72.999l32.354-23.535
	C193.688,17.297,159.787,0,120.064,0v40.004C146.648,40.023,170.129,53.046,184.676,72.999z"/>
<path opacity="0.4" fill="#C0C8CE" enable-background="new    " d="M120.002,40c0.043,0,0.082,0.008,0.125,0.008V0
	C93.643,0,71.092,7.336,49.666,22.922L73.127,55.25C86.314,45.694,102.475,40,120.002,40z"/>
<path opacity="0.7" fill="#C0C8CE" enable-background="new    " d="M39.959,119.999c0-26.663,13.104-50.214,33.168-64.749
	L49.666,22.922C6.83,54.078-10.242,106.655,6.127,157.077l37.793-12.298C41.377,136.977,39.959,128.654,39.959,119.999z"/>
<path opacity="0.5" fill="#C0C8CE" enable-background="new    " d="M120.002,199.999c-35.539,0-65.635-23.172-76.082-55.22
	L6.127,157.077c4.096,12.625,9.23,22.733,17.025,33.452c38.91,53.609,113.903,65.5,167.434,26.547l-23.553-32.445
	C153.824,194.249,137.604,199.999,120.002,199.999z"/>
</svg>
